PathFileType	4	(X/Y/Z)	C:\Users\italobelli\Desktop\GitHub\PTbot_officialCBL\Personal_Results\SHRUG21_noisy1.trc
DataRate	CameraRate	NumFrames	NumMarkers	Units	OrigDataRate	OrigDataStartFrame	OrigNumFrames
112.250000	112.250000	34	9	m	112.250000	226	450
Frame#	Time		gu		centelbow		EpL		centpxt8		centijc7		ij		ts		aa		ai
			X1	Y1	Z1	X2	Y2	Z2	X3	Y3	Z3	X4	Y4	Z4	X5	Y5	Z5	X6	Y6	Z6	X7	Y7	Z7	X8	Y8	Z8	X9	Y9	Z9

226	2.0045	-0.097974	0.050812	0.15949	-0.12131	-0.19817	0.20205	-0.11016	-0.18934	0.23098	-0.046816	-0.15316	-0.008669	-0.046816	0.031938	-0.008669	0	0	0	-0.13641	0.055334	0.030762	-0.12902	0.085476	0.14592	-0.15817	-0.050595	0.065282
227	2.0134	-0.098043	0.05081	0.1595	-0.12155	-0.19823	0.20222	-0.11041	-0.18941	0.23116	-0.046816	-0.15316	-0.008669	-0.046816	0.031938	-0.008669	0	0	0	-0.13642	0.055344	0.030755	-0.12911	0.085454	0.14593	-0.15819	-0.050595	0.065239
228	2.0223	-0.09811	0.050808	0.15952	-0.1218	-0.19828	0.20241	-0.11067	-0.18947	0.23136	-0.046816	-0.15316	-0.008669	-0.046816	0.031938	-0.008669	0	0	0	-0.13643	0.055354	0.030749	-0.12919	0.085435	0.14594	-0.15822	-0.050594	0.065199
229	2.0312	-0.098176	0.050804	0.15954	-0.12204	-0.19834	0.20262	-0.11093	-0.18953	0.23158	-0.046816	-0.15316	-0.008669	-0.046816	0.031938	-0.008669	0	0	0	-0.13644	0.055365	0.030743	-0.12928	0.085416	0.14595	-0.15825	-0.050593	0.065162
230	2.0401	-0.098242	0.0508	0.15955	-0.12229	-0.19839	0.20286	-0.11119	-0.18959	0.23182	-0.046816	-0.15316	-0.008669	-0.046816	0.031938	-0.008669	0	0	0	-0.13644	0.055377	0.030737	-0.12936	0.085399	0.14595	-0.15827	-0.05059	0.065127
231	2.049	-0.098306	0.050796	0.15957	-0.12254	-0.19843	0.20311	-0.11146	-0.18964	0.23208	-0.046816	-0.15316	-0.008669	-0.046816	0.031938	-0.008669	0	0	0	-0.13645	0.055389	0.030731	-0.12944	0.085382	0.14596	-0.1583	-0.050587	0.065095
232	2.0579	-0.098369	0.05079	0.15958	-0.12279	-0.19848	0.20338	-0.11173	-0.18969	0.23236	-0.046816	-0.15316	-0.008669	-0.046816	0.031938	-0.008669	0	0	0	-0.13646	0.055402	0.030725	-0.12952	0.085367	0.14597	-0.15832	-0.050583	0.065065
233	2.0668	-0.098431	0.050784	0.1596	-0.12305	-0.19852	0.20367	-0.11199	-0.18974	0.23266	-0.046816	-0.15316	-0.008669	-0.046816	0.031938	-0.008669	0	0	0	-0.13646	0.055416	0.03072	-0.1296	0.085353	0.14598	-0.15834	-0.050578	0.065036
234	2.0757	-0.098493	0.050778	0.15961	-0.1233	-0.19856	0.20397	-0.11226	-0.18979	0.23297	-0.046816	-0.15316	-0.008669	-0.046816	0.031938	-0.008669	0	0	0	-0.13647	0.05543	0.030714	-0.12967	0.08534	0.14598	-0.15836	-0.050572	0.06501
235	2.0846	-0.098553	0.05077	0.15963	-0.12356	-0.1986	0.20429	-0.11253	-0.18983	0.2333	-0.046816	-0.15316	-0.008669	-0.046816	0.031938	-0.008669	0	0	0	-0.13647	0.055445	0.030709	-0.12975	0.085328	0.14599	-0.15838	-0.050565	0.064986
236	2.0935	-0.098611	0.050762	0.15964	-0.12382	-0.19863	0.20463	-0.1128	-0.18987	0.23364	-0.046816	-0.15316	-0.008669	-0.046816	0.031938	-0.008669	0	0	0	-0.13648	0.05546	0.030704	-0.12982	0.085317	0.146	-0.15839	-0.050558	0.064963
237	2.1024	-0.098669	0.050753	0.15966	-0.12407	-0.19866	0.20497	-0.11308	-0.18991	0.23399	-0.046816	-0.15316	-0.008669	-0.046816	0.031938	-0.008669	0	0	0	-0.13648	0.055476	0.0307	-0.12989	0.085307	0.14601	-0.15841	-0.05055	0.064942
238	2.1114	-0.098725	0.050743	0.15967	-0.12433	-0.1987	0.20533	-0.11335	-0.18994	0.23436	-0.046816	-0.15316	-0.008669	-0.046816	0.031938	-0.008669	0	0	0	-0.13649	0.055493	0.030696	-0.12996	0.085297	0.14602	-0.15843	-0.050541	0.064923
239	2.1203	-0.09878	0.050733	0.15969	-0.12459	-0.19873	0.20571	-0.11362	-0.18998	0.23474	-0.046816	-0.15316	-0.008669	-0.046816	0.031938	-0.008669	0	0	0	-0.13649	0.055509	0.030692	-0.13003	0.085288	0.14602	-0.15844	-0.050532	0.064904
240	2.1292	-0.098833	0.050722	0.1597	-0.12485	-0.19876	0.20609	-0.11389	-0.19001	0.23513	-0.046816	-0.15316	-0.008669	-0.046816	0.031938	-0.008669	0	0	0	-0.13649	0.055526	0.030688	-0.1301	0.08528	0.14603	-0.15846	-0.050522	0.064887
241	2.1381	-0.098885	0.050709	0.15971	-0.1251	-0.19879	0.20648	-0.11416	-0.19005	0.23552	-0.046816	-0.15316	-0.008669	-0.046816	0.031938	-0.008669	0	0	0	-0.1365	0.055544	0.030685	-0.13016	0.085272	0.14604	-0.15847	-0.050512	0.064872
242	2.147	-0.098936	0.050696	0.15973	-0.12536	-0.19881	0.20688	-0.11443	-0.19008	0.23593	-0.046816	-0.15316	-0.008669	-0.046816	0.031938	-0.008669	0	0	0	-0.1365	0.055561	0.030681	-0.13022	0.085265	0.14605	-0.15848	-0.050502	0.064857
243	2.1559	-0.098985	0.050683	0.15974	-0.12562	-0.19884	0.20729	-0.1147	-0.19011	0.23634	-0.046816	-0.15316	-0.008669	-0.046816	0.031938	-0.008669	0	0	0	-0.1365	0.055579	0.030679	-0.13029	0.085258	0.14606	-0.15849	-0.050491	0.064843
244	2.1648	-0.099033	0.050668	0.15976	-0.12587	-0.19886	0.2077	-0.11497	-0.19014	0.23676	-0.046816	-0.15316	-0.008669	-0.046816	0.031938	-0.008669	0	0	0	-0.13651	0.055598	0.030676	-0.13034	0.085251	0.14607	-0.15851	-0.050479	0.06483
245	2.1737	-0.099079	0.050652	0.15977	-0.12613	-0.19889	0.20812	-0.11523	-0.19016	0.23719	-0.046816	-0.15316	-0.008669	-0.046816	0.031938	-0.008669	0	0	0	-0.13651	0.055616	0.030674	-0.1304	0.085245	0.14607	-0.15852	-0.050467	0.064817
246	2.1826	-0.099123	0.050636	0.15979	-0.12638	-0.19891	0.20855	-0.1155	-0.19019	0.23762	-0.046816	-0.15316	-0.008669	-0.046816	0.031938	-0.008669	0	0	0	-0.13651	0.055635	0.030673	-0.13045	0.085239	0.14608	-0.15853	-0.050455	0.064806
247	2.1915	-0.099166	0.050618	0.1598	-0.12663	-0.19894	0.20898	-0.11576	-0.19022	0.23805	-0.046816	-0.15316	-0.008669	-0.046816	0.031938	-0.008669	0	0	0	-0.13651	0.055653	0.030671	-0.13051	0.085233	0.14609	-0.15854	-0.050443	0.064794
248	2.2004	-0.099207	0.0506	0.15981	-0.12688	-0.19896	0.20941	-0.11602	-0.19025	0.23849	-0.046816	-0.15316	-0.008669	-0.046816	0.031938	-0.008669	0	0	0	-0.13652	0.055672	0.03067	-0.13056	0.085227	0.1461	-0.15855	-0.050431	0.064783
249	2.2094	-0.099246	0.05058	0.15983	-0.12713	-0.19898	0.20984	-0.11627	-0.19027	0.23893	-0.046816	-0.15316	-0.008669	-0.046816	0.031938	-0.008669	0	0	0	-0.13652	0.055691	0.03067	-0.1306	0.085222	0.14611	-0.15856	-0.050418	0.064772
250	2.2183	-0.099283	0.05056	0.15984	-0.12737	-0.19901	0.21028	-0.11653	-0.1903	0.23936	-0.046816	-0.15316	-0.008669	-0.046816	0.031938	-0.008669	0	0	0	-0.13652	0.05571	0.03067	-0.13065	0.085216	0.14612	-0.15857	-0.050406	0.064761
251	2.2272	-0.099319	0.050539	0.15986	-0.12762	-0.19903	0.21071	-0.11678	-0.19033	0.2398	-0.046816	-0.15316	-0.008669	-0.046816	0.031938	-0.008669	0	0	0	-0.13652	0.055729	0.03067	-0.13069	0.08521	0.14613	-0.15858	-0.050393	0.06475
252	2.2361	-0.099352	0.050516	0.15987	-0.12786	-0.19906	0.21115	-0.11703	-0.19036	0.24024	-0.046816	-0.15316	-0.008669	-0.046816	0.031938	-0.008669	0	0	0	-0.13652	0.055748	0.030671	-0.13073	0.085204	0.14614	-0.15859	-0.05038	0.064739
253	2.245	-0.099384	0.050493	0.15989	-0.1281	-0.19908	0.21158	-0.11727	-0.19039	0.24067	-0.046816	-0.15316	-0.008669	-0.046816	0.031938	-0.008669	0	0	0	-0.13653	0.055767	0.030672	-0.13077	0.085198	0.14615	-0.1586	-0.050367	0.064727
254	2.2539	-0.099414	0.050468	0.1599	-0.12833	-0.19911	0.21201	-0.11751	-0.19041	0.2411	-0.046816	-0.15316	-0.008669	-0.046816	0.031938	-0.008669	0	0	0	-0.13653	0.055785	0.030674	-0.1308	0.085192	0.14616	-0.15861	-0.050354	0.064715
255	2.2628	-0.099441	0.050443	0.15992	-0.12857	-0.19913	0.21243	-0.11775	-0.19044	0.24153	-0.046816	-0.15316	-0.008669	-0.046816	0.031938	-0.008669	0	0	0	-0.13653	0.055804	0.030676	-0.13084	0.085185	0.14617	-0.15862	-0.050342	0.064703
256	2.2717	-0.099467	0.050416	0.15993	-0.12879	-0.19916	0.21285	-0.11798	-0.19048	0.24195	-0.046816	-0.15316	-0.008669	-0.046816	0.031938	-0.008669	0	0	0	-0.13653	0.055822	0.030679	-0.13087	0.085178	0.14618	-0.15863	-0.050329	0.06469
257	2.2806	-0.099491	0.050389	0.15995	-0.12902	-0.19919	0.21327	-0.11821	-0.19051	0.24237	-0.046816	-0.15316	-0.008669	-0.046816	0.031938	-0.008669	0	0	0	-0.13653	0.05584	0.030682	-0.13089	0.08517	0.1462	-0.15864	-0.050317	0.064676
258	2.2895	-0.099512	0.05036	0.15996	-0.12924	-0.19922	0.21368	-0.11843	-0.19054	0.24278	-0.046816	-0.15316	-0.008669	-0.046816	0.031938	-0.008669	0	0	0	-0.13653	0.055858	0.030686	-0.13092	0.085162	0.14621	-0.15866	-0.050305	0.064661
259	2.2984	-0.099531	0.05033	0.15998	-0.12946	-0.19925	0.21408	-0.11865	-0.19058	0.24318	-0.046816	-0.15316	-0.008669	-0.046816	0.031938	-0.008669	0	0	0	-0.13653	0.055876	0.03069	-0.13094	0.085153	0.14622	-0.15867	-0.050293	0.064646
